<svg width="36" height="36" viewBox="0 0 36 36" fill="none" xmlns="http://www.w3.org/2000/svg">
<g filter="url(#filter0_d_1_1714)">
<path d="M20.1057 9.59534C20.1945 9.48261 20.3598 9.46762 20.4675 9.56254L21.3885 10.3747L18.4883 14H20.4092L22.5148 11.368L24.167 12.8249C24.2686 12.9145 24.2804 13.0687 24.1935 13.1727L23.5023 14H25.4465C25.9405 13.2789 25.8278 12.2895 25.1591 11.6998L21.4596 8.43749C20.7061 7.77305 19.5491 7.87796 18.9275 8.66709L16.8268 11.3335L14.7262 14H16.6358L20.1057 9.59534ZM22 21C21.5858 21 21.25 21.3358 21.25 21.75C21.25 22.1642 21.5858 22.5 22 22.5H24C24.4142 22.5 24.75 22.1642 24.75 21.75C24.75 21.3358 24.4142 21 24 21H22ZM10.25 14.25C10.25 13.8358 10.5858 13.5 11 13.5H14.1284L15.32 12H11C9.75736 12 8.75 13.0074 8.75 14.25V24.75C8.75 26.5449 10.2051 28 12 28H24C25.7949 28 27.25 26.5449 27.25 24.75V18.25C27.25 16.4551 25.7949 15 24 15H11C10.5858 15 10.25 14.6642 10.25 14.25ZM10.25 24.75V16.372C10.4846 16.4549 10.737 16.5 11 16.5H24C24.9665 16.5 25.75 17.2835 25.75 18.25V24.75C25.75 25.7165 24.9665 26.5 24 26.5H12C11.0335 26.5 10.25 25.7165 10.25 24.75Z" fill="#293859"/>
<rect x="20.75" y="21" width="4.36709" height="2" rx="1" fill="#FF8834"/>
</g>
<defs>
<filter id="filter0_d_1_1714" x="-3.25" y="-3" width="42.5" height="44" filterUnits="userSpaceOnUse" color-interpolation-filters="sRGB">
<feFlood flood-opacity="0" result="BackgroundImageFix"/>
<feColorMatrix in="SourceAlpha" type="matrix" values="0 0 0 0 0 0 0 0 0 0 0 0 0 0 0 0 0 0 127 0" result="hardAlpha"/>
<feOffset dy="1"/>
<feGaussianBlur stdDeviation="2"/>
<feComposite in2="hardAlpha" operator="out"/>
<feColorMatrix type="matrix" values="0 0 0 0 0 0 0 0 0 0 0 0 0 0 0 0 0 0 0.25 0"/>
<feBlend mode="normal" in2="BackgroundImageFix" result="effect1_dropShadow_1_1714"/>
<feBlend mode="normal" in="SourceGraphic" in2="effect1_dropShadow_1_1714" result="shape"/>
</filter>
</defs>
</svg>
