<svg width="40" height="40" viewBox="0 0 40 40" fill="none" xmlns="http://www.w3.org/2000/svg">
<g filter="url(#filter0_d_1_1758)">
<path d="M11.7241 23.3679H28.2759C28.5441 23.3679 28.7644 23.2817 28.9368 23.1092C29.1092 22.9368 29.1954 22.7165 29.1954 22.4483V15.7242C29.1954 15.456 29.1092 15.2357 28.9368 15.0633C28.7644 14.8909 28.5441 14.8046 28.2759 14.8046H11.7241C11.4559 14.8046 11.2356 14.8909 11.0632 15.0633C10.8908 15.2357 10.8046 15.456 10.8046 15.7242V22.4483C10.8046 22.7165 10.8908 22.9368 11.0632 23.1092C11.2356 23.2817 11.4559 23.3679 11.7241 23.3679ZM12.7011 25.3794C12.5862 25.3794 12.4904 25.341 12.4138 25.2644C12.3372 25.1878 12.2989 25.092 12.2989 24.9771V24.1725H11.7241C11.2261 24.1725 10.8142 24.0096 10.4885 23.684C10.1628 23.3583 10 22.9464 10 22.4483V15.7242C10 15.2261 10.1628 14.8142 10.4885 14.4886C10.8142 14.1629 11.2261 14 11.7241 14H28.2759C28.7739 14 29.1858 14.1629 29.5115 14.4886C29.8372 14.8142 30 15.2261 30 15.7242V22.4483C30 22.9464 29.8372 23.3583 29.5115 23.684C29.1858 24.0096 28.7739 24.1725 28.2759 24.1725H27.7011V24.9771C27.7011 25.092 27.6628 25.1878 27.5862 25.2644C27.5096 25.341 27.4138 25.3794 27.2989 25.3794C27.1839 25.3794 27.0881 25.341 27.0115 25.2644C26.9349 25.1878 26.8966 25.092 26.8966 24.9771V24.1725H13.1034V24.9771C13.1034 25.092 13.0651 25.1878 12.9885 25.2644C12.9119 25.341 12.8161 25.3794 12.7011 25.3794Z" fill="#293859"/>
<path d="M10.8046 23.3679V14.8046M11.7241 23.3679H28.2759C28.5441 23.3679 28.7644 23.2817 28.9368 23.1092C29.1092 22.9368 29.1954 22.7165 29.1954 22.4483V15.7242C29.1954 15.456 29.1092 15.2357 28.9368 15.0633C28.7644 14.8909 28.5441 14.8046 28.2759 14.8046H11.7241C11.4559 14.8046 11.2356 14.8909 11.0632 15.0633C10.8908 15.2357 10.8046 15.456 10.8046 15.7242V22.4483C10.8046 22.7165 10.8908 22.9368 11.0632 23.1092C11.2356 23.2817 11.4559 23.3679 11.7241 23.3679ZM12.7011 25.3794C12.5862 25.3794 12.4904 25.341 12.4138 25.2644C12.3372 25.1878 12.2989 25.092 12.2989 24.9771V24.1725H11.7241C11.2261 24.1725 10.8142 24.0096 10.4885 23.684C10.1628 23.3583 10 22.9464 10 22.4483V15.7242C10 15.2261 10.1628 14.8142 10.4885 14.4886C10.8142 14.1629 11.2261 14 11.7241 14H28.2759C28.7739 14 29.1858 14.1629 29.5115 14.4886C29.8372 14.8142 30 15.2261 30 15.7242V22.4483C30 22.9464 29.8372 23.3583 29.5115 23.684C29.1858 24.0096 28.7739 24.1725 28.2759 24.1725H27.7011V24.9771C27.7011 25.092 27.6628 25.1878 27.5862 25.2644C27.5096 25.341 27.4138 25.3794 27.2989 25.3794C27.1839 25.3794 27.0881 25.341 27.0115 25.2644C26.9349 25.1878 26.8966 25.092 26.8966 24.9771V24.1725H13.1034V24.9771C13.1034 25.092 13.0651 25.1878 12.9885 25.2644C12.9119 25.341 12.8161 25.3794 12.7011 25.3794Z" stroke="#293859" stroke-width="0.5"/>
<path d="M25.4739 21.0001C25.9072 21.0001 26.2699 20.8566 26.562 20.5696C26.854 20.2825 27 19.926 27 19.5001C27 19.0742 26.854 18.7177 26.562 18.4307C26.2699 18.1436 25.9072 18.0001 25.4739 18.0001C25.0406 18.0001 24.6779 18.1436 24.3859 18.4307C24.0938 18.7177 23.9478 19.0742 23.9478 19.5001C23.9478 19.926 24.0938 20.2825 24.3859 20.5696C24.6779 20.8566 25.0406 21.0001 25.4739 21.0001ZM14 21.0001H21.1217V18.0001H14V21.0001Z" fill="#FF8834" stroke="#FF8834" stroke-width="0.5"/>
</g>
<defs>
<filter id="filter0_d_1_1758" x="-4" y="-3" width="48" height="48" filterUnits="userSpaceOnUse" color-interpolation-filters="sRGB">
<feFlood flood-opacity="0" result="BackgroundImageFix"/>
<feColorMatrix in="SourceAlpha" type="matrix" values="0 0 0 0 0 0 0 0 0 0 0 0 0 0 0 0 0 0 127 0" result="hardAlpha"/>
<feOffset dy="1"/>
<feGaussianBlur stdDeviation="2"/>
<feComposite in2="hardAlpha" operator="out"/>
<feColorMatrix type="matrix" values="0 0 0 0 0 0 0 0 0 0 0 0 0 0 0 0 0 0 0.25 0"/>
<feBlend mode="normal" in2="BackgroundImageFix" result="effect1_dropShadow_1_1758"/>
<feBlend mode="normal" in="SourceGraphic" in2="effect1_dropShadow_1_1758" result="shape"/>
</filter>
</defs>
</svg>
