<svg width="40" height="40" viewBox="0 0 40 40" fill="none" xmlns="http://www.w3.org/2000/svg">
<g filter="url(#filter0_d_1_1787)">
<path d="M30 13.7241V25.6782C30 26.1762 29.8372 26.5881 29.5115 26.9138C29.1858 27.2395 28.7739 27.4023 28.2759 27.4023H11.7241C11.2261 27.4023 10.8142 27.2395 10.4885 26.9138C10.1628 26.5881 10 26.1762 10 25.6782V13.7241C10 13.2261 10.1628 12.8142 10.4885 12.4885C10.8142 12.1628 11.2261 12 11.7241 12H28.2759C28.7739 12 29.1858 12.1628 29.5115 12.4885C29.8372 12.8142 30 13.2261 30 13.7241ZM10.8046 16.3103H29.1954V13.7241C29.1954 13.4943 29.0996 13.2835 28.908 13.092C28.7165 12.9004 28.5057 12.8046 28.2759 12.8046H11.7241C11.4943 12.8046 11.2835 12.9004 11.092 13.092C10.9004 13.2835 10.8046 13.4943 10.8046 13.7241V16.3103ZM10.8046 18.4943V25.6782C10.8046 25.908 10.9004 26.1188 11.092 26.3103C11.2835 26.5019 11.4943 26.5977 11.7241 26.5977H28.2759C28.5057 26.5977 28.7165 26.5019 28.908 26.3103C29.0996 26.1188 29.1954 25.908 29.1954 25.6782V18.4943H10.8046Z" fill="#293859"/>
<path d="M10.8046 26.5977V12.8046M30 13.7241V25.6782C30 26.1762 29.8372 26.5881 29.5115 26.9138C29.1858 27.2395 28.7739 27.4023 28.2759 27.4023H11.7241C11.2261 27.4023 10.8142 27.2395 10.4885 26.9138C10.1628 26.5881 10 26.1762 10 25.6782V13.7241C10 13.2261 10.1628 12.8142 10.4885 12.4885C10.8142 12.1628 11.2261 12 11.7241 12H28.2759C28.7739 12 29.1858 12.1628 29.5115 12.4885C29.8372 12.8142 30 13.2261 30 13.7241ZM10.8046 16.3103H29.1954V13.7241C29.1954 13.4943 29.0996 13.2835 28.908 13.092C28.7165 12.9004 28.5057 12.8046 28.2759 12.8046H11.7241C11.4943 12.8046 11.2835 12.9004 11.092 13.092C10.9004 13.2835 10.8046 13.4943 10.8046 13.7241V16.3103ZM10.8046 18.4943V25.6782C10.8046 25.908 10.9004 26.1188 11.092 26.3103C11.2835 26.5019 11.4943 26.5977 11.7241 26.5977H28.2759C28.5057 26.5977 28.7165 26.5019 28.908 26.3103C29.0996 26.1188 29.1954 25.908 29.1954 25.6782V18.4943H10.8046Z" stroke="#293859" stroke-width="0.5"/>
<path d="M29.195 16.3103H10.8042V18.4943H29.195V16.3103Z" fill="#FF8834" stroke="#293859" stroke-width="0.5"/>
</g>
<defs>
<filter id="filter0_d_1_1787" x="-4" y="-3" width="48" height="48" filterUnits="userSpaceOnUse" color-interpolation-filters="sRGB">
<feFlood flood-opacity="0" result="BackgroundImageFix"/>
<feColorMatrix in="SourceAlpha" type="matrix" values="0 0 0 0 0 0 0 0 0 0 0 0 0 0 0 0 0 0 127 0" result="hardAlpha"/>
<feOffset dy="1"/>
<feGaussianBlur stdDeviation="2"/>
<feComposite in2="hardAlpha" operator="out"/>
<feColorMatrix type="matrix" values="0 0 0 0 0 0 0 0 0 0 0 0 0 0 0 0 0 0 0.25 0"/>
<feBlend mode="normal" in2="BackgroundImageFix" result="effect1_dropShadow_1_1787"/>
<feBlend mode="normal" in="SourceGraphic" in2="effect1_dropShadow_1_1787" result="shape"/>
</filter>
</defs>
</svg>
