<svg width="40" height="40" viewBox="0 0 40 40" fill="none" xmlns="http://www.w3.org/2000/svg">
<g filter="url(#filter0_d_1_1727)">
<g clip-path="url(#clip0_1_1727)">
<path d="M15.5586 28.2148C14.6992 28.2148 13.9222 28.0752 13.2275 27.7959C12.54 27.5094 11.9528 27.112 11.4658 26.6035C10.986 26.0951 10.6172 25.4971 10.3594 24.8096C10.1016 24.1221 9.97266 23.3809 9.97266 22.5859V22.1562C9.97266 21.2467 10.1051 20.4232 10.3701 19.6855C10.6351 18.9479 11.0039 18.3177 11.4766 17.7949C11.9492 17.265 12.5078 16.8604 13.1523 16.5811C13.7969 16.3018 14.4951 16.1621 15.2471 16.1621C16.0778 16.1621 16.8047 16.3018 17.4277 16.5811C18.0508 16.8604 18.5664 17.2542 18.9746 17.7627C19.39 18.264 19.6979 18.862 19.8984 19.5566C20.1061 20.2513 20.21 21.0176 20.21 21.8555V22.9619H11.2295V21.1035H17.6533V20.8994C17.639 20.4339 17.5459 19.9971 17.374 19.5889C17.2093 19.1807 16.9551 18.8512 16.6113 18.6006C16.2676 18.3499 15.8092 18.2246 15.2363 18.2246C14.8066 18.2246 14.4235 18.3177 14.0869 18.5039C13.7575 18.6829 13.4818 18.9443 13.2598 19.2881C13.0378 19.6318 12.8659 20.0472 12.7441 20.5342C12.6296 21.014 12.5723 21.5547 12.5723 22.1562V22.5859C12.5723 23.0944 12.6403 23.5671 12.7764 24.0039C12.9196 24.4336 13.1273 24.8096 13.3994 25.1318C13.6715 25.4541 14.001 25.7083 14.3877 25.8945C14.7744 26.0736 15.2148 26.1631 15.709 26.1631C16.332 26.1631 16.887 26.0378 17.374 25.7871C17.861 25.5365 18.2835 25.182 18.6416 24.7236L20.0059 26.0449C19.7552 26.4102 19.4294 26.7611 19.0283 27.0977C18.6273 27.4271 18.1367 27.6956 17.5566 27.9033C16.9837 28.111 16.3177 28.2148 15.5586 28.2148Z" fill="#293859"/>
<path d="M28.5 15.5H26C26.8 19.9 23.6667 20.3333 22 20V22C22.4 22 23.1667 22.6667 23.5 23L27.5 28.5H30.5C29.3333 26.8333 26.7 23.1 25.5 21.5C28.7 21.1 28.8333 17.3333 28.5 15.5Z" fill="#293859"/>
<path d="M32 13.5H22.5L22 15.5H31.5L32 13.5Z" fill="#FF8834"/>
<path d="M32 17H22.5L22 19H31.5L32 17Z" fill="#0FCA92"/>
</g>
</g>
<defs>
<filter id="filter0_d_1_1727" x="-4" y="-3" width="48" height="48" filterUnits="userSpaceOnUse" color-interpolation-filters="sRGB">
<feFlood flood-opacity="0" result="BackgroundImageFix"/>
<feColorMatrix in="SourceAlpha" type="matrix" values="0 0 0 0 0 0 0 0 0 0 0 0 0 0 0 0 0 0 127 0" result="hardAlpha"/>
<feOffset dy="1"/>
<feGaussianBlur stdDeviation="2"/>
<feComposite in2="hardAlpha" operator="out"/>
<feColorMatrix type="matrix" values="0 0 0 0 0 0 0 0 0 0 0 0 0 0 0 0 0 0 0.25 0"/>
<feBlend mode="normal" in2="BackgroundImageFix" result="effect1_dropShadow_1_1727"/>
<feBlend mode="normal" in="SourceGraphic" in2="effect1_dropShadow_1_1727" result="shape"/>
</filter>
<clipPath id="clip0_1_1727">
<rect width="24" height="24" fill="white" transform="translate(8 8)"/>
</clipPath>
</defs>
</svg>
