<svg width="40" height="40" viewBox="0 0 40 40" fill="none" xmlns="http://www.w3.org/2000/svg">
<g filter="url(#filter0_d_1_1752)">
<path fill-rule="evenodd" clip-rule="evenodd" d="M24.206 14.7781C23.894 14.6251 23.7201 14.7902 23.5571 14.945C23.3762 15.1168 23.2087 15.2758 22.8807 14.9728L21.807 14.0969C21.6632 13.9938 21.5134 13.8802 21.3607 13.7644C21.1256 13.5859 20.8835 13.4023 20.6456 13.244C19.1012 12.2162 15.3635 9.84659 13.8563 11.8032C12.4954 13.57 12.9583 16.0828 13.8508 18.0284C14.7977 20.0909 15.7183 21.0227 17.1024 22.4237L17.2007 22.5232C17.1888 22.8072 16.9578 23.5389 16.7987 24.043C16.7561 24.1778 16.7187 24.2963 16.6919 24.3857L15.6223 28.0956C15.5947 28.1884 15.5595 28.2957 15.5213 28.412C15.3555 28.9172 15.1342 29.5913 15.248 29.9778L15.6476 30C15.8242 29.7574 15.9321 29.3505 16.0363 28.9581C16.0968 28.73 16.156 28.5067 16.2267 28.3235C16.451 28.3093 17.1275 28.764 17.7774 29.2009C18.3586 29.5916 18.9185 29.968 19.1146 29.9818C19.2609 29.992 19.9032 29.5746 20.5565 29.1501C21.1681 28.7526 21.7893 28.3489 22.0223 28.2839C22.1376 28.5623 22.2337 28.9226 22.3169 29.2347L22.3443 29.337C22.3552 29.3775 22.3654 29.4173 22.3753 29.4562C22.463 29.8012 22.5302 30.0652 22.9725 29.9763C23.171 29.7086 23.0836 29.4642 22.9775 29.1673C22.944 29.0737 22.9087 28.9749 22.8799 28.8686C22.8337 28.6976 22.7393 28.381 22.628 28.0076C22.3413 27.0458 21.9423 25.7072 21.9645 25.5099C21.9682 25.5101 22.0196 25.5227 22.1056 25.5437C22.4962 25.6392 23.601 25.9093 24.1988 25.9839C25.5819 26.1579 27.3921 25.7584 28.2886 24.6634C29.6977 22.9425 26.8296 19.1471 25.6404 17.7467L24.001 15.9823C23.9921 15.7503 24.077 15.5862 24.1555 15.4344C24.2582 15.2358 24.3499 15.0584 24.206 14.7781ZM19.4762 29.0158C19.4129 28.6407 19.386 27.1651 19.5054 26.8241C19.6825 26.8548 20.0167 27.0382 20.2769 27.1809C20.3586 27.2257 20.4329 27.2665 20.4929 27.2973C20.6154 27.3599 20.7246 27.4105 20.8209 27.4551C21.1263 27.5966 21.3013 27.6778 21.3561 27.8883C21.0625 28.0845 19.7958 28.9295 19.4762 29.0158ZM16.9135 27.8052C17.0654 27.6526 17.5373 27.4144 17.8189 27.2723C17.8657 27.2487 17.9073 27.2277 17.9413 27.2102C18.0766 27.1404 18.1916 27.0767 18.2892 27.0227C18.6998 26.7955 18.8006 26.7397 18.8013 27.1137L18.7831 28.9881C18.4943 28.9786 17.3922 28.2071 17.0939 27.9919C16.977 27.9079 16.9593 27.9174 16.9567 27.9188C16.9567 27.9152 16.9564 27.8943 16.9135 27.8052ZM16.6215 27.1438C16.6279 26.7347 17.5694 23.6024 17.7672 23.0905C17.9466 23.1528 18.0654 23.2504 18.1906 23.3533C18.2498 23.4019 18.3105 23.4517 18.3796 23.4995C18.4175 23.5257 18.4558 23.5489 18.493 23.5716C18.6573 23.6712 18.8013 23.7586 18.8013 24.032L18.7886 26.0472C18.6201 26.1156 18.3081 26.2878 17.9652 26.4771C17.468 26.7515 16.9058 27.0618 16.6215 27.1438ZM19.4722 24.3374C19.6787 24.3548 21.0499 25.0803 21.1322 25.2117C21.2232 25.358 21.6377 26.8787 21.6828 27.1367C21.4538 27.114 20.993 26.8591 20.6758 26.6837C20.5942 26.6385 20.5221 26.5987 20.466 26.5694C20.3291 26.498 20.21 26.4386 20.1066 26.3869C19.7795 26.2236 19.6082 26.138 19.5205 25.9996C19.424 25.8474 19.4285 25.6314 19.4378 25.1778C19.4415 25.0025 19.4458 24.7916 19.4453 24.5352L19.4722 24.3374ZM20.2286 18.2468C20.3051 18.0616 20.8994 17.6471 21.3047 17.3645C21.4484 17.2642 21.5684 17.1805 21.633 17.1296C21.8593 16.9508 22.8918 16.1699 23.1125 16.1738C23.0502 16.3097 22.9307 16.591 22.7847 16.9346C22.3825 17.8813 21.7796 19.3006 21.6188 19.451C21.5119 19.4321 21.4884 19.4362 21.4831 19.4371L21.4816 19.4372C21.4812 19.4333 21.479 19.4124 21.3537 19.3275L20.2286 18.2468ZM19.098 21.0167C19.1806 21.0976 19.2545 21.1509 19.3295 21.205C19.3902 21.2488 19.4516 21.2932 19.5189 21.353C21.0554 22.7162 23.4037 24.3967 25.4418 24.9893C25.5264 25.0138 25.592 25.0265 25.6497 25.0376C25.7635 25.0595 25.8459 25.0754 25.9798 25.1642C25.9308 25.2483 25.9079 25.2874 25.874 25.3073C25.8448 25.3246 25.8072 25.3277 25.7372 25.3335C25.7106 25.3357 25.6793 25.3383 25.642 25.3422C23.789 25.5353 21.8521 24.9197 20.3987 24.0597C19.0228 23.2447 17.7086 22.2708 16.62 21.0436C16.0004 20.3442 15.4355 19.5419 14.9236 18.7159C14.2922 17.6969 13.6237 16.0092 13.6197 14.536L13.6846 13.8247C13.783 13.8864 13.9748 14.3069 14.1875 14.7732C14.3544 15.1391 14.5342 15.5333 14.6918 15.8043C14.9665 16.2771 15.2481 16.6724 15.5401 17.0822C15.6526 17.2402 15.7667 17.4003 15.8826 17.5679C16.6068 18.6143 17.6284 19.5986 18.5738 20.5094C18.7521 20.6811 18.9276 20.8503 19.098 21.0167ZM22.5516 15.6049C22.4482 15.7759 20.8886 16.8963 20.4762 17.1926L20.4549 17.2079C20.4166 17.2354 20.3682 17.2715 20.3142 17.3117C20.1237 17.4538 19.8636 17.6477 19.7317 17.6977C19.4843 17.6927 18.6239 16.4825 18.1955 15.88C18.0815 15.7196 17.9981 15.6023 17.965 15.5622C17.1663 15.5039 17.5847 16.1342 17.7792 16.4274L17.8036 16.4642C18.7443 17.8899 20.8078 19.8323 22.1773 20.7691C22.1902 20.7779 22.2085 20.7907 22.2315 20.8068C22.6259 21.0824 24.41 22.3293 24.2859 21.391C24.2726 21.3513 24.2642 21.3222 24.2579 21.3002C24.2483 21.2667 24.2435 21.2497 24.2332 21.2372C24.2226 21.2242 24.2064 21.2159 24.1733 21.1991C24.1489 21.1867 24.1154 21.1696 24.0683 21.1425C23.7659 20.9695 23.583 20.8742 23.4408 20.8001C23.1187 20.6323 23.0055 20.5733 22.186 19.9668C22.2167 19.7237 22.5328 19.0471 22.746 18.5905C22.8076 18.4587 22.8606 18.3451 22.8957 18.2657C22.9642 18.1117 23.0428 17.9438 23.1233 17.7719C23.3061 17.3815 23.4985 16.9707 23.6023 16.6564C24.1846 16.7917 26.3114 19.6464 26.6191 20.1013C27.116 20.8363 28.9809 23.8975 27.4317 24.5004C26.1832 24.9862 23.5168 23.5074 22.7407 22.9734L20.4027 21.2842C19.7942 20.8213 17.9705 19.0554 17.5741 18.5806C17.3673 18.3324 17.2108 18.1531 17.0707 17.9927C16.7849 17.6651 16.5672 17.4157 16.1286 16.8178C15.559 16.0417 13.9797 13.7116 14.3453 12.361C14.786 10.7327 18.1755 12.4742 18.9097 12.9062C19.5925 13.3081 22.0784 14.9332 22.5516 15.6049Z" fill="#293859" stroke="#293859" stroke-width="0.5"/>
<path d="M27.9249 14.1793C27.5996 13.5668 27.2538 13.0347 26.7941 12.5365C26.0426 11.722 25.2443 11.0721 24.1589 10.6059C23.8026 10.4528 21.4019 9.56274 21.421 10.2691C21.4272 10.5152 21.7021 10.538 21.9271 10.5567C21.9659 10.56 22.0033 10.5631 22.0375 10.5672C22.7099 10.6495 23.5556 10.9224 24.1556 11.2041C24.9262 11.5668 25.6922 12.1527 26.2613 12.7625C27.8665 14.4834 28.1292 16.1935 28.2373 16.8969C28.2612 17.0521 28.2775 17.1583 28.299 17.2048C28.4084 17.4403 28.7548 17.4396 28.7851 17.0843C28.847 16.3623 28.2108 14.7162 27.9249 14.1793Z" fill="#FF8834"/>
<path d="M25.9944 15.149C26.1999 15.528 26.6142 16.378 26.4805 16.8727L26.0886 16.9088C26.0185 16.7264 25.9697 16.561 25.9213 16.3967C25.8229 16.0627 25.7259 15.7333 25.453 15.2749C24.7095 14.0261 23.6207 13.2191 22.2376 12.8659C21.6916 12.7264 21.9531 12.297 22.1823 12.297C22.5228 12.297 23.4673 12.7053 23.7841 12.887C24.7081 13.4151 25.4721 14.1888 25.9944 15.149Z" fill="#FF8834"/>
<path d="M27.9249 14.1793C27.5996 13.5668 27.2538 13.0347 26.7941 12.5365C26.0426 11.722 25.2443 11.0721 24.1589 10.6059C23.8026 10.4528 21.4019 9.56274 21.421 10.2691C21.4272 10.5152 21.7021 10.538 21.9271 10.5567C21.9659 10.56 22.0033 10.5631 22.0375 10.5672C22.7099 10.6495 23.5556 10.9224 24.1556 11.2041C24.9262 11.5668 25.6922 12.1527 26.2613 12.7625C27.8665 14.4834 28.1292 16.1935 28.2373 16.8969C28.2612 17.0521 28.2775 17.1583 28.299 17.2048C28.4084 17.4403 28.7548 17.4396 28.7851 17.0843C28.847 16.3623 28.2108 14.7162 27.9249 14.1793Z" stroke="#FF8834" stroke-width="0.5"/>
<path d="M25.9944 15.149C26.1999 15.528 26.6142 16.378 26.4805 16.8727L26.0886 16.9088C26.0185 16.7264 25.9697 16.561 25.9213 16.3967C25.8229 16.0627 25.7259 15.7333 25.453 15.2749C24.7095 14.0261 23.6207 13.2191 22.2376 12.8659C21.6916 12.7264 21.9531 12.297 22.1823 12.297C22.5228 12.297 23.4673 12.7053 23.7841 12.887C24.7081 13.4151 25.4721 14.1888 25.9944 15.149Z" stroke="#FF8834" stroke-width="0.5"/>
</g>
<defs>
<filter id="filter0_d_1_1752" x="-4" y="-3" width="48" height="48" filterUnits="userSpaceOnUse" color-interpolation-filters="sRGB">
<feFlood flood-opacity="0" result="BackgroundImageFix"/>
<feColorMatrix in="SourceAlpha" type="matrix" values="0 0 0 0 0 0 0 0 0 0 0 0 0 0 0 0 0 0 127 0" result="hardAlpha"/>
<feOffset dy="1"/>
<feGaussianBlur stdDeviation="2"/>
<feComposite in2="hardAlpha" operator="out"/>
<feColorMatrix type="matrix" values="0 0 0 0 0 0 0 0 0 0 0 0 0 0 0 0 0 0 0.25 0"/>
<feBlend mode="normal" in2="BackgroundImageFix" result="effect1_dropShadow_1_1752"/>
<feBlend mode="normal" in="SourceGraphic" in2="effect1_dropShadow_1_1752" result="shape"/>
</filter>
</defs>
</svg>
