<svg width="40" height="40" viewBox="0 0 40 40" fill="none" xmlns="http://www.w3.org/2000/svg">
<g filter="url(#filter0_d_1_1746)">
<path fill-rule="evenodd" clip-rule="evenodd" d="M16.6718 25.9752C16.727 25.9752 16.7718 25.9304 16.7718 25.8752V21.5117C16.7718 21.4863 16.7815 21.4619 16.7988 21.4434L18.5044 19.6219C18.5643 19.558 18.519 19.4536 18.4315 19.4536H16.8718C16.8166 19.4536 16.7718 19.4088 16.7718 19.3536V13.0353C16.7718 12.4635 16.3017 12.0001 15.7219 12.0001H11.8371C11.2573 12.0001 10.7872 12.4635 10.7872 13.0353V25.8752C10.7872 25.9304 10.832 25.9752 10.8872 25.9752H16.6718ZM12.9395 13.087C12.3597 13.087 11.8896 13.5505 11.8896 14.1222V18.2629C11.8896 18.8347 12.3597 19.2981 12.9395 19.2981H14.6194C15.1993 19.2981 15.6694 18.8347 15.6694 18.2629V14.1222C15.6694 13.5505 15.1993 13.087 14.6194 13.087H12.9395Z" stroke="#293859" stroke-width="0.7"/>
<path d="M11.0499 26.5963C10.4701 26.5963 10 27.0597 10 27.6315V27.8938C10 27.949 10.0448 27.9938 10.1 27.9938H17.4595C17.5147 27.9938 17.5595 27.949 17.5595 27.8938V27.6315C17.5595 27.0597 17.0894 26.5963 16.5096 26.5963H11.0499Z" stroke="#293859" stroke-width="0.7"/>
<path fill-rule="evenodd" clip-rule="evenodd" d="M19.0914 21.359L18.6639 22.2022C18.6472 22.235 18.6138 22.2559 18.577 22.2575C18.0556 22.2801 17.8733 22.43 17.8733 22.9726V26.0299C17.8733 26.0851 17.9181 26.1299 17.9733 26.1299H18.5614C18.6166 26.1299 18.6614 26.1747 18.6614 26.2299V27.062C18.6614 27.5765 19.0845 27.9937 19.6064 27.9937C20.1282 27.9937 20.5513 27.5765 20.5513 27.062V26.2299C20.5513 26.1747 20.5961 26.1299 20.6513 26.1299H27.223C27.2782 26.1299 27.323 26.1747 27.323 26.2299V27.062C27.323 27.5765 27.7461 27.9937 28.2679 27.9937C28.7898 27.9937 29.2129 27.5765 29.2129 27.062V26.2299C29.2129 26.1747 29.2576 26.1299 29.3129 26.1299H29.9C29.9552 26.1299 30 26.0851 30 26.0299V22.9726C30 22.4008 29.5299 21.9374 28.9501 21.9374V21.9374C28.9186 21.9374 28.8902 21.9186 28.8779 21.8896L27.5068 18.6601C27.4911 18.6232 27.4549 18.5992 27.4147 18.5992H20.4573C20.4186 18.5992 20.3834 18.6215 20.3669 18.6565L19.0914 21.359ZM20.9345 19.5309C20.8934 19.5309 20.8565 19.5561 20.8415 19.5943L19.9752 21.8008C19.9494 21.8664 19.9978 21.9374 20.0683 21.9374H27.7323C27.8015 21.9374 27.8498 21.8687 27.8264 21.8035L27.0323 19.597C27.018 19.5573 26.9803 19.5309 26.9382 19.5309H20.9345Z" stroke="#293859" stroke-width="0.7"/>
<path d="M24.1202 10.0666C24.0783 10.0299 24.0146 10.0345 23.9784 10.0768L22.9983 11.2209C22.9427 11.2857 22.9888 11.3859 23.0743 11.3859H25.361C25.4534 11.3859 25.4964 11.2715 25.4269 11.2107L24.1202 10.0666Z" stroke="#FF8834" stroke-width="0.7"/>
<path d="M22.0324 12.4458C22.0029 12.4458 21.9749 12.4588 21.9559 12.4814L21.0952 13.5043C21.0405 13.5693 21.0867 13.6686 21.1717 13.6686H23.6805C23.71 13.6686 23.738 13.6556 23.757 13.633L24.6177 12.6102C24.6724 12.5451 24.6261 12.4458 24.5411 12.4458H22.0324Z" stroke="#FF8834" stroke-width="0.7"/>
<path d="M19.1141 15.9513C19.0291 15.9513 18.9828 15.8519 19.0376 15.7869L19.8982 14.764C19.9172 14.7414 19.9452 14.7284 19.9747 14.7284H22.4835C22.5685 14.7284 22.6147 14.8277 22.56 14.8928L21.6994 15.9156C21.6804 15.9382 21.6524 15.9513 21.6228 15.9513H19.1141Z" stroke="#FF8834" stroke-width="0.7"/>
<path d="M18.0755 17.011C18.0459 17.011 18.0179 17.0241 17.9989 17.0466L17.1383 18.0695C17.0836 18.1345 17.1298 18.2339 17.2148 18.2339H19.7236C19.7531 18.2339 19.7811 18.2208 19.8001 18.1983L20.6607 17.1754C20.7155 17.1104 20.6692 17.011 20.5842 17.011H18.0755Z" stroke="#FF8834" stroke-width="0.7"/>
<path fill-rule="evenodd" clip-rule="evenodd" d="M29.1875 24.0217C29.1875 24.562 28.7623 25 28.2377 25C27.7132 25 27.288 24.562 27.288 24.0217C27.288 23.4814 27.7132 23.0434 28.2377 23.0434C28.7623 23.0434 29.1875 23.4814 29.1875 24.0217ZM20.1648 25C20.6893 25 21.1145 24.562 21.1145 24.0217C21.1145 23.4814 20.6893 23.0434 20.1648 23.0434C19.6402 23.0434 19.215 23.4814 19.215 24.0217C19.215 24.562 19.6402 25 20.1648 25Z" stroke="#FF8834" stroke-width="0.7"/>
</g>
<defs>
<filter id="filter0_d_1_1746" x="-4" y="-3" width="48" height="48" filterUnits="userSpaceOnUse" color-interpolation-filters="sRGB">
<feFlood flood-opacity="0" result="BackgroundImageFix"/>
<feColorMatrix in="SourceAlpha" type="matrix" values="0 0 0 0 0 0 0 0 0 0 0 0 0 0 0 0 0 0 127 0" result="hardAlpha"/>
<feOffset dy="1"/>
<feGaussianBlur stdDeviation="2"/>
<feComposite in2="hardAlpha" operator="out"/>
<feColorMatrix type="matrix" values="0 0 0 0 0 0 0 0 0 0 0 0 0 0 0 0 0 0 0.25 0"/>
<feBlend mode="normal" in2="BackgroundImageFix" result="effect1_dropShadow_1_1746"/>
<feBlend mode="normal" in="SourceGraphic" in2="effect1_dropShadow_1_1746" result="shape"/>
</filter>
</defs>
</svg>
