<svg width="40" height="40" viewBox="0 0 40 40" fill="none" xmlns="http://www.w3.org/2000/svg">
<g filter="url(#filter0_d_1_1775)">
<path d="M19.75 30C17.5334 29.3026 15.6876 27.9298 14.2126 25.8816C12.7375 23.8333 12 21.5095 12 18.9099V12.9008L19.75 10L27.5 12.9008V18.9099C27.5 21.5095 26.7625 23.8333 25.2874 25.8816C23.8124 27.9298 21.9666 29.3026 19.75 30ZM19.75 29.1912C21.7768 28.5404 23.4502 27.2527 24.7701 25.3279C26.09 23.403 26.75 21.2643 26.75 18.9118V13.3937L19.75 10.8088L12.75 13.3937V18.9118C12.75 21.2643 13.41 23.403 14.7299 25.3279C16.0498 27.2527 17.7232 28.5404 19.75 29.1912Z" fill="#293859" stroke="#293859" stroke-width="0.5"/>
<path d="M20.6769 23.2503H18.824V20.3091H15.8828V18.4562H18.824V15.515H20.6769V18.4562H23.6181V20.3091H20.6769V23.2503Z" fill="#FF8834" stroke="#FF8834" stroke-width="0.5"/>
</g>
<defs>
<filter id="filter0_d_1_1775" x="-4" y="-3" width="48" height="48" filterUnits="userSpaceOnUse" color-interpolation-filters="sRGB">
<feFlood flood-opacity="0" result="BackgroundImageFix"/>
<feColorMatrix in="SourceAlpha" type="matrix" values="0 0 0 0 0 0 0 0 0 0 0 0 0 0 0 0 0 0 127 0" result="hardAlpha"/>
<feOffset dy="1"/>
<feGaussianBlur stdDeviation="2"/>
<feComposite in2="hardAlpha" operator="out"/>
<feColorMatrix type="matrix" values="0 0 0 0 0 0 0 0 0 0 0 0 0 0 0 0 0 0 0.25 0"/>
<feBlend mode="normal" in2="BackgroundImageFix" result="effect1_dropShadow_1_1775"/>
<feBlend mode="normal" in="SourceGraphic" in2="effect1_dropShadow_1_1775" result="shape"/>
</filter>
</defs>
</svg>
