<svg width="40" height="40" viewBox="0 0 40 40" fill="none" xmlns="http://www.w3.org/2000/svg">
<g filter="url(#filter0_d_1_1768)">
<path d="M28.9111 23.1239L22.4991 23.6814V22.8845C22.5013 22.3941 22.3505 21.9163 22.0693 21.5229C21.7881 21.1295 21.3917 20.8419 20.9398 20.7033L16.2133 19.2279C16.16 19.0213 16.0429 18.8386 15.8801 18.708C15.7172 18.5774 15.5177 18.5061 15.3121 18.5052H10.3125C10.2296 18.5052 10.1501 18.5395 10.0915 18.6005C10.0329 18.6615 10 18.7442 10 18.8304V25.9862C10 26.0724 10.0329 26.1551 10.0915 26.2161C10.1501 26.2771 10.2296 26.3114 10.3125 26.3114H15.3121C15.4906 26.3108 15.6653 26.2572 15.8155 26.1568C15.9657 26.0564 16.0853 25.9135 16.1602 25.7448L21.1492 27.3028C21.8271 27.5157 22.5519 27.5043 23.2234 27.2703L29.3111 25.158C29.5446 25.0776 29.7416 24.9108 29.8649 24.6893C29.9881 24.4677 30.0289 24.2068 29.9796 23.9559C29.9303 23.7051 29.7943 23.4818 29.5973 23.3285C29.4004 23.1751 29.1562 23.1023 28.9111 23.1239ZM13.7497 25.6609H10.625V19.1557H13.7497V25.6609ZM15.6246 25.3356C15.6246 25.4219 15.5917 25.5046 15.5331 25.5656C15.4745 25.6266 15.395 25.6609 15.3121 25.6609H14.3747V19.1557H15.3121C15.395 19.1557 15.4745 19.19 15.5331 19.251C15.5917 19.312 15.6246 19.3947 15.6246 19.481V25.3356ZM29.1142 24.5401L23.0259 26.6523C22.4765 26.8441 21.8834 26.8537 21.3285 26.6796L16.2495 25.0936V19.9181L20.7605 21.3265C21.0831 21.4257 21.366 21.6313 21.5668 21.9122C21.7676 22.1931 21.8755 22.5343 21.8741 22.8845V23.5539L19.1781 22.4311C19.1397 22.4135 19.0983 22.4041 19.0564 22.4035C19.0144 22.403 18.9728 22.4112 18.934 22.4277C18.8952 22.4442 18.8599 22.4687 18.8304 22.4997C18.8009 22.5306 18.7776 22.5675 18.762 22.608C18.7465 22.6486 18.7389 22.6919 18.7398 22.7356C18.7407 22.7792 18.75 22.8222 18.7672 22.8621C18.7843 22.9019 18.8091 22.9377 18.8398 22.9674C18.8706 22.997 18.9068 23.0199 18.9462 23.0347L22.071 24.3358H22.0791C22.0943 24.34 22.1097 24.3431 22.1254 24.3449C22.1457 24.3512 22.1667 24.3553 22.1878 24.3573C22.1916 24.3573 22.1947 24.3573 22.1985 24.354C22.2022 24.3507 22.2085 24.354 22.2141 24.354L28.9636 23.7685C29.0564 23.7597 29.1491 23.7867 29.2239 23.8446C29.2987 23.9024 29.3504 23.9869 29.3692 24.0819C29.3879 24.1769 29.3723 24.2758 29.3254 24.3596C29.2785 24.4434 29.2035 24.5063 29.1148 24.5361L29.1142 24.5401ZM25.6238 21.1073C26.4891 21.1073 27.3349 20.8402 28.0543 20.3398C28.7737 19.8395 29.3344 19.1283 29.6655 18.2962C29.9966 17.4642 30.0833 16.5486 29.9145 15.6653C29.7457 14.7819 29.329 13.9706 28.7172 13.3337C28.1054 12.6969 27.3259 12.2632 26.4773 12.0875C25.6287 11.9118 24.7491 12.002 23.9497 12.3466C23.1504 12.6913 22.4671 13.2749 21.9864 14.0238C21.5057 14.7726 21.2492 15.653 21.2492 16.5536C21.2505 17.7609 21.7118 18.9183 22.5319 19.772C23.3521 20.6257 24.464 21.1059 25.6238 21.1073ZM25.6238 12.6505C26.3655 12.6505 27.0904 12.8794 27.7071 13.3083C28.3237 13.7372 28.8043 14.3468 29.0881 15.06C29.3719 15.7732 29.4462 16.558 29.3015 17.3151C29.1568 18.0722 28.7997 18.7677 28.2753 19.3136C27.7509 19.8594 27.0828 20.2311 26.3554 20.3817C25.628 20.5324 24.8741 20.4551 24.1889 20.1596C23.5037 19.8642 22.9181 19.3639 22.5061 18.7221C22.094 18.0802 21.8741 17.3256 21.8741 16.5536C21.8753 15.5188 22.2707 14.5268 22.9737 13.795C23.6766 13.0633 24.6297 12.6517 25.6238 12.6505Z" fill="#293859" stroke="#293859" stroke-width="0.5"/>
<path d="M23.7964 17.5557L25.8733 19.4546H26.7151L24.6128 17.5301H24.9397C25.4161 17.5301 25.8434 17.4008 26.2151 17.1394C26.5538 16.9013 26.7436 16.5763 26.7813 16.1784H27.4546V15.6238H26.7442C26.6929 15.4625 26.6054 15.3119 26.4856 15.1724C26.4643 15.1475 26.4424 15.1234 26.4199 15.1001H27.4546V14.5455H23.4546V15.1001H24.9397C25.279 15.1001 25.5632 15.1764 25.7993 15.322C25.9444 15.4115 26.049 15.5122 26.1189 15.6238H23.4546V16.1784H26.194C26.1572 16.4165 26.039 16.5902 25.842 16.7156C25.5697 16.8889 25.2704 16.9755 24.9397 16.9755H23.7964V17.1664V17.2224V17.2758V17.5557Z" fill="#FF8834" stroke="#FF8834" stroke-width="0.3"/>
</g>
<defs>
<filter id="filter0_d_1_1768" x="-4" y="-3" width="48" height="48" filterUnits="userSpaceOnUse" color-interpolation-filters="sRGB">
<feFlood flood-opacity="0" result="BackgroundImageFix"/>
<feColorMatrix in="SourceAlpha" type="matrix" values="0 0 0 0 0 0 0 0 0 0 0 0 0 0 0 0 0 0 127 0" result="hardAlpha"/>
<feOffset dy="1"/>
<feGaussianBlur stdDeviation="2"/>
<feComposite in2="hardAlpha" operator="out"/>
<feColorMatrix type="matrix" values="0 0 0 0 0 0 0 0 0 0 0 0 0 0 0 0 0 0 0.25 0"/>
<feBlend mode="normal" in2="BackgroundImageFix" result="effect1_dropShadow_1_1768"/>
<feBlend mode="normal" in="SourceGraphic" in2="effect1_dropShadow_1_1768" result="shape"/>
</filter>
</defs>
</svg>
