<svg width="40" height="40" viewBox="0 0 40 40" fill="none" xmlns="http://www.w3.org/2000/svg">
<g filter="url(#filter0_d_1_1740)">
<path d="M15.4917 30C15.0712 30 14.7175 29.8561 14.4305 29.5684C14.1435 29.2806 14 28.9262 14 28.5052V11.4948C14 11.0738 14.1435 10.7194 14.4305 10.4316C14.7175 10.1439 15.0712 10 15.4917 10H24.1749C24.5954 10 24.9492 10.1439 25.2362 10.4316C25.5232 10.7194 25.6667 11.0738 25.6667 11.4948V28.5052C25.6667 28.9262 25.5232 29.2806 25.2362 29.5684C24.9492 29.8561 24.5954 30 24.1749 30H15.4917ZM14.6641 25.5744V28.4987C14.6641 28.7076 14.7509 28.899 14.9245 29.0731C15.0981 29.2472 15.2891 29.3342 15.4974 29.3342H24.1693C24.3776 29.3342 24.5686 29.2472 24.7422 29.0731C24.9158 28.899 25.0026 28.7076 25.0026 28.4987V25.5744H14.6641ZM14.6641 24.9086H25.0026V13.0809H14.6641V24.9086ZM14.6641 12.4151H25.0026V11.5013C25.0026 11.2924 24.9158 11.101 24.7422 10.9269C24.5686 10.7528 24.3776 10.6658 24.1693 10.6658H15.4974C15.2891 10.6658 15.0981 10.7528 14.9245 10.9269C14.7509 11.101 14.6641 11.2924 14.6641 11.5013V12.4151Z" fill="#293859"/>
<path d="M14.6641 25.5744V28.4987C14.6641 28.7076 14.7509 28.899 14.9245 29.0731C15.0981 29.2472 15.2891 29.3342 15.4974 29.3342H24.1693C24.3776 29.3342 24.5686 29.2472 24.7422 29.0731C24.9158 28.899 25.0026 28.7076 25.0026 28.4987V25.5744H14.6641ZM14.6641 25.5744V29.3342M14.6641 12.4151H25.0026V11.5013C25.0026 11.2924 24.9158 11.101 24.7422 10.9269C24.5686 10.7528 24.3776 10.6658 24.1693 10.6658H15.4974C15.2891 10.6658 15.0981 10.7528 14.9245 10.9269C14.7509 11.101 14.6641 11.2924 14.6641 11.5013V12.4151ZM14.6641 12.4151V10.6658M15.4917 30C15.0712 30 14.7175 29.8561 14.4305 29.5684C14.1435 29.2806 14 28.9262 14 28.5052V11.4948C14 11.0738 14.1435 10.7194 14.4305 10.4316C14.7175 10.1439 15.0712 10 15.4917 10H24.1749C24.5954 10 24.9492 10.1439 25.2362 10.4316C25.5232 10.7194 25.6667 11.0738 25.6667 11.4948V28.5052C25.6667 28.9262 25.5232 29.2806 25.2362 29.5684C24.9492 29.8561 24.5954 30 24.1749 30H15.4917ZM14.6641 24.9086H25.0026V13.0809H14.6641V24.9086Z" stroke="#293859" stroke-width="0.5"/>
<circle cx="20" cy="27" r="1" fill="#FF8834"/>
</g>
<defs>
<filter id="filter0_d_1_1740" x="-4" y="-3" width="48" height="48" filterUnits="userSpaceOnUse" color-interpolation-filters="sRGB">
<feFlood flood-opacity="0" result="BackgroundImageFix"/>
<feColorMatrix in="SourceAlpha" type="matrix" values="0 0 0 0 0 0 0 0 0 0 0 0 0 0 0 0 0 0 127 0" result="hardAlpha"/>
<feOffset dy="1"/>
<feGaussianBlur stdDeviation="2"/>
<feComposite in2="hardAlpha" operator="out"/>
<feColorMatrix type="matrix" values="0 0 0 0 0 0 0 0 0 0 0 0 0 0 0 0 0 0 0.25 0"/>
<feBlend mode="normal" in2="BackgroundImageFix" result="effect1_dropShadow_1_1740"/>
<feBlend mode="normal" in="SourceGraphic" in2="effect1_dropShadow_1_1740" result="shape"/>
</filter>
</defs>
</svg>
