<svg width="40" height="40" viewBox="0 0 40 40" fill="none" xmlns="http://www.w3.org/2000/svg">
<g filter="url(#filter0_d_1_1794)">
<path d="M18.5 22.55H15C15 22.097 15.175 21.7255 15.525 21.4353C15.875 21.1451 16.2833 21 16.75 21C17.2167 21 17.625 21.1458 17.975 21.4375C18.325 21.7292 18.5 22.1 18.5 22.55Z" fill="#FF8834" stroke="#FF8834" stroke-width="0.5"/>
<path d="M11.8592 30V22.3628H11L17.3007 16.6826L20.9284 19.9761V17.8759H22.074V20.9785L23.6014 22.3628H22.7422V30H18.5418V25.2267H16.0597V30H11.8592ZM12.5274 29.3318H15.3914V24.5585H19.21V29.3318H22.074V21.8855L17.3007 17.5895L12.5274 21.8855V29.3318Z" fill="#293859" stroke="#293859" stroke-width="0.5"/>
<path d="M19.5334 15.2485V12.0824H18.5411V11.6389H20.9877V12.0824H19.9954V15.2485H19.5334Z" fill="#FF8834"/>
<path fill-rule="evenodd" clip-rule="evenodd" d="M21.3208 15.2485L21.6464 14.2739H22.9505L23.2761 15.2485H23.7625L22.5416 11.6389H22.0552L20.8344 15.2485H21.3208ZM22.2984 12.3223L22.8023 13.8305H21.7946L22.2984 12.3223Z" fill="#FF8834"/>
<path d="M24.9746 13.4283L23.817 15.2485H24.352L25.2421 13.8511L26.1273 15.2485H26.6624L25.5096 13.4283L26.6429 11.6389H26.1079L25.2421 13.0054L24.3715 11.6389H23.8364L24.9746 13.4283Z" fill="#FF8834"/>
<path fill-rule="evenodd" clip-rule="evenodd" d="M17.8689 10C17.0279 10 16.3462 10.7272 16.3462 11.6243V15.0583C16.3462 15.9554 17.0279 16.6826 17.8689 16.6826H27.234C28.0749 16.6826 28.7567 15.9554 28.7567 15.0583V11.6243C28.7567 10.7272 28.0749 10 27.234 10H17.8689ZM16.6846 11.6243C16.6846 10.9266 17.2148 10.361 17.8689 10.361H27.234C27.8881 10.361 28.4183 10.9266 28.4183 11.6243V15.0583C28.4183 15.756 27.8881 16.3216 27.234 16.3216H17.8689C17.2148 16.3216 16.6846 15.756 16.6846 15.0583V11.6243Z" fill="#FF8834"/>
<path d="M19.5334 15.2485V12.0824H18.5411V11.6389H20.9877V12.0824H19.9954V15.2485H19.5334Z" stroke="#FF8834" stroke-width="0.5"/>
<path fill-rule="evenodd" clip-rule="evenodd" d="M21.3208 15.2485L21.6464 14.2739H22.9505L23.2761 15.2485H23.7625L22.5416 11.6389H22.0552L20.8344 15.2485H21.3208ZM22.2984 12.3223L22.8023 13.8305H21.7946L22.2984 12.3223Z" stroke="#FF8834" stroke-width="0.5"/>
<path d="M24.9746 13.4283L23.817 15.2485H24.352L25.2421 13.8511L26.1273 15.2485H26.6624L25.5096 13.4283L26.6429 11.6389H26.1079L25.2421 13.0054L24.3715 11.6389H23.8364L24.9746 13.4283Z" stroke="#FF8834" stroke-width="0.5"/>
<path fill-rule="evenodd" clip-rule="evenodd" d="M17.8689 10C17.0279 10 16.3462 10.7272 16.3462 11.6243V15.0583C16.3462 15.9554 17.0279 16.6826 17.8689 16.6826H27.234C28.0749 16.6826 28.7567 15.9554 28.7567 15.0583V11.6243C28.7567 10.7272 28.0749 10 27.234 10H17.8689ZM16.6846 11.6243C16.6846 10.9266 17.2148 10.361 17.8689 10.361H27.234C27.8881 10.361 28.4183 10.9266 28.4183 11.6243V15.0583C28.4183 15.756 27.8881 16.3216 27.234 16.3216H17.8689C17.2148 16.3216 16.6846 15.756 16.6846 15.0583V11.6243Z" stroke="#FF8834" stroke-width="0.5"/>
</g>
<defs>
<filter id="filter0_d_1_1794" x="-4" y="-3" width="48" height="48" filterUnits="userSpaceOnUse" color-interpolation-filters="sRGB">
<feFlood flood-opacity="0" result="BackgroundImageFix"/>
<feColorMatrix in="SourceAlpha" type="matrix" values="0 0 0 0 0 0 0 0 0 0 0 0 0 0 0 0 0 0 127 0" result="hardAlpha"/>
<feOffset dy="1"/>
<feGaussianBlur stdDeviation="2"/>
<feComposite in2="hardAlpha" operator="out"/>
<feColorMatrix type="matrix" values="0 0 0 0 0 0 0 0 0 0 0 0 0 0 0 0 0 0 0.25 0"/>
<feBlend mode="normal" in2="BackgroundImageFix" result="effect1_dropShadow_1_1794"/>
<feBlend mode="normal" in="SourceGraphic" in2="effect1_dropShadow_1_1794" result="shape"/>
</filter>
</defs>
</svg>
