<svg width="24" height="24" viewBox="0 0 24 24" fill="none" xmlns="http://www.w3.org/2000/svg">
<path d="M13.3333 5.52557C13.3333 6.24157 12.7364 6.82202 12 6.82202C11.2636 6.82202 10.6667 6.24157 10.6667 5.52557C10.6667 4.80955 11.2636 4.22911 12 4.22911C12.7364 4.22911 13.3333 4.80955 13.3333 5.52557ZM13.3755 0.436085C12.556 -0.145362 11.444 -0.145362 10.6245 0.436085L0.72876 7.45762C-0.574013 8.382 0.0984268 10.3872 1.7112 10.3872H2V17.9065C0.812773 18.4967 0 19.6976 0 21.083V23.0277C0 23.5647 0.44772 24 1 24H23C23.5523 24 24 23.5647 24 23.0277V21.083C24 19.6976 23.1872 18.4967 22 17.9065V10.3872H22.2888C23.9016 10.3872 24.574 8.38201 23.2712 7.45762L13.3755 0.436085ZM11.8035 2.00697C11.9205 1.92391 12.0795 1.92391 12.1965 2.00697L21.2665 8.44259H2.73348L11.8035 2.00697ZM20 10.3872V17.5177H17.3333V10.3872H20ZM15.3333 10.3872V17.5177H13V10.3872H15.3333ZM11 10.3872V17.5177H8.66667V10.3872H11ZM3.66667 19.4624H20.3333C21.2539 19.4624 22 20.188 22 21.083V22.0553H2V21.083C2 20.188 2.74619 19.4624 3.66667 19.4624ZM4 17.5177V10.3872H6.66667V17.5177H4Z" fill="#293859"/>
</svg>
