<svg width="32" height="33" viewBox="0 0 32 33" fill="none" xmlns="http://www.w3.org/2000/svg">
<g clip-path="url(#clip0_1_2099)">
<path fill-rule="evenodd" clip-rule="evenodd" d="M2.12207 5.87105H4.16607V8.30105H2.12207V23.971H4.09807V26.205H2.12207V31.799H25.9161V0.0370483H2.12207V5.87105ZM8.89007 8.82105C8.95007 8.77305 9.43207 8.41305 9.60407 8.28305L9.59207 8.27905C9.60807 8.27305 9.61607 8.27105 9.62607 8.26505C9.63607 8.25305 9.66807 8.23105 9.67407 8.22505L9.68207 8.23505C9.97407 8.06305 10.2761 7.94305 10.6201 7.89105C11.5441 7.75505 12.2181 8.71505 12.6561 9.26505C13.0941 9.80905 13.7021 10.677 13.6281 11.271C13.5841 11.629 13.1741 11.959 12.7861 12.283L12.7721 12.263C12.6661 12.377 12.1981 12.855 12.1581 12.919C11.9441 13.275 11.6981 14.081 12.0421 14.689C12.3681 15.279 13.0121 16.235 13.6221 17.033C14.2661 17.807 15.0561 18.653 15.5561 19.107C16.0801 19.581 16.9421 19.547 17.3461 19.431C17.4241 19.411 18.0541 19.037 18.1361 18.997C18.5541 18.709 18.9761 18.405 19.3501 18.451C19.9561 18.527 20.6621 19.319 21.1001 19.865C21.5381 20.413 22.3261 21.289 21.9661 22.129C21.8281 22.447 21.6281 22.701 21.3801 22.939L21.3881 22.947L21.3441 22.979C21.3361 22.987 21.3321 22.995 21.3321 22.995L21.3241 22.997C21.1601 23.121 20.6761 23.491 20.6161 23.535C19.9441 23.969 18.4841 24.511 16.4321 23.305C14.9101 22.407 13.2401 20.883 11.6461 18.979L11.6381 18.985C11.5641 18.891 11.4941 18.797 11.4241 18.703C11.3501 18.611 11.2721 18.525 11.1961 18.429L11.2041 18.423C9.70807 16.449 8.60807 14.493 8.09207 12.831C7.39807 10.591 8.29607 9.34905 8.89007 8.82105Z" fill="#434343"/>
<path d="M1.958 6.03705H0V8.02105H1.958V6.03705Z" fill="#434343"/>
<path d="M1.954 24.037H0V25.923H1.954V24.037Z" fill="#434343"/>
<path d="M29.832 4.03705H28V9.78705H29.832V4.03705Z" fill="#434343"/>
<path d="M29.774 22.037H28V27.731H29.774V22.037Z" fill="#434343"/>
<path d="M29.802 12.037H28V19.827H29.802V12.037Z" fill="#434343"/>
</g>
<defs>
<clipPath id="clip0_1_2099">
<rect width="32" height="32" fill="white" transform="translate(0 0.0370483)"/>
</clipPath>
</defs>
</svg>
