<svg width="25" height="25" viewBox="0 0 25 25" fill="none" xmlns="http://www.w3.org/2000/svg">
<path d="M12.4999 9.50462C14.709 9.50462 16.4999 11.2955 16.4999 13.5046C16.4999 15.7138 14.709 17.5046 12.4999 17.5046C10.2907 17.5046 8.49987 15.7138 8.49987 13.5046C8.49987 11.2955 10.2907 9.50462 12.4999 9.50462ZM12.4999 11.0046C11.1192 11.0046 9.99987 12.1239 9.99987 13.5046C9.99987 14.8853 11.1192 16.0046 12.4999 16.0046C13.8806 16.0046 14.9999 14.8853 14.9999 13.5046C14.9999 12.1239 13.8806 11.0046 12.4999 11.0046ZM12.4999 6C17.1134 6 21.096 9.15001 22.201 13.5644C22.3016 13.9662 22.0574 14.3735 21.6556 14.4741C21.2537 14.5746 20.8465 14.3305 20.7459 13.9286C19.807 10.178 16.4212 7.5 12.4999 7.5C8.57681 7.5 5.18997 10.1803 4.25273 13.9332C4.15237 14.335 3.74523 14.5794 3.34336 14.4791C2.94149 14.3787 2.69707 13.9716 2.79743 13.5697C3.90052 9.15272 7.88436 6 12.4999 6Z" fill="#293859"/>
</svg>
