<svg width="24" height="24" viewBox="0 0 24 24" fill="none" xmlns="http://www.w3.org/2000/svg">
<path d="M11.9981 1.63636C10.0218 1.63611 8.08655 2.20076 6.42048 3.2638C4.75442 4.32683 3.42692 5.84395 2.59443 7.63636H5.18207C5.39906 7.63636 5.60717 7.72257 5.76061 7.87601C5.91405 8.02944 6.00025 8.23755 6.00025 8.45455C6.00025 8.67154 5.91405 8.87965 5.76061 9.03309C5.60717 9.18653 5.39906 9.27273 5.18207 9.27273H1.09116C0.801831 9.27273 0.524354 9.15779 0.319769 8.95321C0.115184 8.74862 0.00024917 8.47115 0.00024917 8.18182V4.09091C0.000249173 3.87391 0.0864502 3.66581 0.239889 3.51237C0.393328 3.35893 0.601436 3.27273 0.818431 3.27273C1.03543 3.27273 1.24353 3.35893 1.39697 3.51237C1.55041 3.66581 1.63661 3.87391 1.63661 4.09091V5.94218C2.69424 4.13301 4.20734 2.63245 6.02524 1.5899C7.84315 0.547353 9.90244 -0.000806708 11.9981 8.91081e-07C18.6264 8.91081e-07 24.0002 5.37273 24.0002 12C24.0002 18.6273 18.6264 24 11.9981 24C5.47007 24 0.159522 18.7887 0.00024917 12.3C-0.00510338 12.083 0.0759643 11.8728 0.225618 11.7155C0.375272 11.5583 0.581254 11.467 0.798249 11.4616C1.01524 11.4563 1.22548 11.5374 1.3827 11.687C1.53993 11.8367 1.63126 12.0426 1.63661 12.2596C1.70435 14.9626 2.82576 17.5321 4.76156 19.4198C6.69736 21.3075 9.29424 22.3639 11.9981 22.3636C17.7232 22.3636 22.3639 17.724 22.3639 12C22.3639 6.276 17.7232 1.63636 11.9981 1.63636Z" fill="#919DA9"/>
<path d="M12.5455 6.81818C12.5455 6.60119 12.4593 6.39308 12.3059 6.23964C12.1525 6.0862 11.9444 6 11.7274 6C11.5104 6 11.3023 6.0862 11.1488 6.23964C10.9954 6.39308 10.9092 6.60119 10.9092 6.81818V12.8182C10.9092 13.1127 11.0663 13.3833 11.3215 13.5284L15.1397 15.7102C15.3277 15.8118 15.5479 15.8358 15.7533 15.7771C15.9588 15.7185 16.1331 15.5818 16.2391 15.3963C16.3451 15.2108 16.3743 14.9912 16.3206 14.7845C16.2668 14.5777 16.1343 14.4002 15.9514 14.2898L12.5455 12.3436V6.81818Z" fill="#919DA9"/>
</svg>
