<svg width="29" height="28" viewBox="0 0 29 28" fill="none" xmlns="http://www.w3.org/2000/svg">
<rect x="1" y="0.5" width="27" height="27" rx="13.5" fill="white"/>
<rect x="1" y="0.5" width="27" height="27" rx="13.5" stroke="#293859"/>
<path d="M7.67969 20.0308V18.3077H9.38482V12.2769C9.38482 11.0851 9.74005 10.0297 10.4505 9.11077C11.161 8.17743 12.0846 7.56718 13.2214 7.28V6.67692C13.2214 6.31795 13.3421 6.01641 13.5837 5.7723C13.8395 5.51384 14.145 5.38461 14.5002 5.38461C14.8554 5.38461 15.1538 5.51384 15.3954 5.7723C15.6512 6.01641 15.779 6.31795 15.779 6.67692V7.28C16.9158 7.56718 17.8394 8.17743 18.5499 9.11077C19.2604 10.0297 19.6156 11.0851 19.6156 12.2769V18.3077H21.3207V20.0308H7.67969ZM14.5002 22.6154C14.0313 22.6154 13.6263 22.4503 13.2853 22.12C12.9585 21.7754 12.7951 21.3662 12.7951 20.8923H16.2053C16.2053 21.3662 16.0348 21.7754 15.6938 22.12C15.367 22.4503 14.9691 22.6154 14.5002 22.6154ZM11.0899 18.3077H17.9105V12.2769C17.9105 11.3292 17.5765 10.5179 16.9087 9.84307C16.2409 9.1682 15.438 8.83077 14.5002 8.83077C13.5624 8.83077 12.7595 9.1682 12.0917 9.84307C11.4239 10.5179 11.0899 11.3292 11.0899 12.2769V18.3077Z" fill="#293859"/>
</svg>
