<svg width="24" height="24" viewBox="0 0 24 24" fill="none" xmlns="http://www.w3.org/2000/svg">
<path d="M15.0033 14.5006H14.2123L13.932 14.2303C14.9471 13.0528 15.5051 11.5495 15.504 9.99485C15.504 8.70762 15.1223 7.4493 14.4071 6.37901C13.692 5.30872 12.6755 4.47453 11.4863 3.98193C10.297 3.48933 8.98842 3.36044 7.72593 3.61157C6.46343 3.8627 5.30376 4.48255 4.39355 5.39276C3.48335 6.30297 2.86349 7.46264 2.61236 8.72513C2.36124 9.98763 2.49012 11.2962 2.98272 12.4855C3.47533 13.6747 4.30951 14.6912 5.3798 15.4063C6.45009 16.1215 7.70841 16.5032 8.99564 16.5032C10.6077 16.5032 12.0896 15.9124 13.2311 14.9312L13.5014 15.2115V16.0025L18.5078 20.9989L19.9997 19.507L15.0033 14.5006ZM8.99564 14.5006C6.50245 14.5006 4.48987 12.488 4.48987 9.99485C4.48987 7.50165 6.50245 5.48908 8.99564 5.48908C11.4888 5.48908 13.5014 7.50165 13.5014 9.99485C13.5014 12.488 11.4888 14.5006 8.99564 14.5006Z" fill="#919DA9"/>
</svg>
